{
	"asset":{
		"generator":"Khronos glTF Blender I/O v5.0.21",
		"version":"2.0"
	},
	"extensionsUsed":[
		"KHR_materials_specular",
		"KHR_materials_ior"
	],
	"scene":0,
	"scenes":[
		{
			"name":"Scene",
			"nodes":[
				0,
				1,
				2,
				3,
				4,
				5,
				6
			]
		}
	],
	"nodes":[
		{
			"mesh":0,
			"name":"lake"
		},
		{
			"mesh":1,
			"name":"hill"
		},
		{
			"mesh":2,
			"name":"lake_border"
		},
		{
			"mesh":3,
			"name":"path"
		},
		{
			"mesh":4,
			"name":"grass"
		},
		{
			"name":"HillCurve",
			"translation":[
				426.6623840332031,
				-0.20000000298023224,
				-529.5824584960938
			]
		},
		{
			"name":"LakePathCurve",
			"translation":[
				426.6623840332031,
				0,
				-529.5824584960938
			]
		}
	],
	"materials":[
		{
			"name":"Water"
		},
		{
			"extensions":{
				"KHR_materials_specular":{
					"specularFactor":0.22834646701812744
				},
				"KHR_materials_ior":{
					"ior":1.4500000476837158
				}
			},
			"name":"grass",
			"pbrMetallicRoughness":{
				"baseColorTexture":{
					"index":0
				},
				"metallicFactor":0,
				"roughnessFactor":0.8070865869522095
			}
		},
		{
			"doubleSided":true,
			"name":"ParkCement",
			"pbrMetallicRoughness":{
				"baseColorFactor":[
					0.16794593632221222,
					0.16794593632221222,
					0.16794593632221222,
					1
				],
				"metallicFactor":0,
				"roughnessFactor":0.5
			}
		},
		{
			"extensions":{
				"KHR_materials_specular":{
					"specularFactor":0.4330708384513855
				},
				"KHR_materials_ior":{
					"ior":1.4500000476837158
				}
			},
			"name":"Gravel",
			"pbrMetallicRoughness":{
				"baseColorTexture":{
					"index":1
				},
				"metallicFactor":0,
				"roughnessFactor":0.8385826945304871
			}
		}
	],
	"meshes":[
		{
			"name":"Mesh",
			"primitives":[
				{
					"attributes":{
						"POSITION":0,
						"NORMAL":1
					},
					"indices":2,
					"material":0
				}
			]
		},
		{
			"name":"Plane",
			"primitives":[
				{
					"attributes":{
						"POSITION":3,
						"NORMAL":4,
						"TEXCOORD_0":5
					},
					"indices":6,
					"material":1
				}
			]
		},
		{
			"name":"Plane.001",
			"primitives":[
				{
					"attributes":{
						"POSITION":7,
						"NORMAL":8,
						"TEXCOORD_0":9
					},
					"indices":10,
					"material":2
				}
			]
		},
		{
			"name":"Plane.002",
			"primitives":[
				{
					"attributes":{
						"POSITION":11,
						"NORMAL":12,
						"TEXCOORD_0":13
					},
					"indices":14,
					"material":3
				}
			]
		},
		{
			"name":"Mesh",
			"primitives":[
				{
					"attributes":{
						"POSITION":15,
						"NORMAL":16,
						"TEXCOORD_0":17
					},
					"indices":18,
					"material":1
				}
			]
		}
	],
	"textures":[
		{
			"sampler":0,
			"source":0
		},
		{
			"sampler":0,
			"source":1
		}
	],
	"images":[
		{
			"mimeType":"image/jpeg",
			"name":"grass",
			"uri":"textures/grass.jpg"
		},
		{
			"mimeType":"image/jpeg",
			"name":"gravel",
			"uri":"textures/gravel.jpg"
		}
	],
	"accessors":[
		{
			"bufferView":0,
			"componentType":5126,
			"count":708,
			"max":[
				276.1102600097656,
				1.1548399925231934e-07,
				194.75457763671875
			],
			"min":[
				-58.289154052734375,
				1.0058283805847168e-07,
				-189.94088745117188
			],
			"type":"VEC3"
		},
		{
			"bufferView":1,
			"componentType":5126,
			"count":708,
			"type":"VEC3"
		},
		{
			"bufferView":2,
			"componentType":5123,
			"count":2118,
			"type":"SCALAR"
		},
		{
			"bufferView":3,
			"componentType":5126,
			"count":11352,
			"max":[
				320.7123107910156,
				4.323579788208008,
				237.2296142578125
			],
			"min":[
				-100.27334594726562,
				-0.003594622015953064,
				-232.60787963867188
			],
			"type":"VEC3"
		},
		{
			"bufferView":4,
			"componentType":5126,
			"count":11352,
			"type":"VEC3"
		},
		{
			"bufferView":5,
			"componentType":5126,
			"count":11352,
			"type":"VEC2"
		},
		{
			"bufferView":6,
			"componentType":5123,
			"count":17028,
			"type":"SCALAR"
		},
		{
			"bufferView":7,
			"componentType":5126,
			"count":96576,
			"max":[
				276.40179443359375,
				0.2818359434604645,
				195.046142578125
			],
			"min":[
				-58.592193603515625,
				-0.01816423609852791,
				-190.23666381835938
			],
			"type":"VEC3"
		},
		{
			"bufferView":8,
			"componentType":5126,
			"count":96576,
			"type":"VEC3"
		},
		{
			"bufferView":9,
			"componentType":5126,
			"count":96576,
			"type":"VEC2"
		},
		{
			"bufferView":10,
			"componentType":5125,
			"count":144864,
			"type":"SCALAR"
		},
		{
			"bufferView":11,
			"componentType":5126,
			"count":60214,
			"max":[
				280.0521240234375,
				0.01832258701324463,
				198.69744873046875
			],
			"min":[
				-62.24359130859375,
				-0.15297651290893555,
				-193.88815307617188
			],
			"type":"VEC3"
		},
		{
			"bufferView":12,
			"componentType":5126,
			"count":60214,
			"type":"VEC3"
		},
		{
			"bufferView":13,
			"componentType":5126,
			"count":60214,
			"type":"VEC2"
		},
		{
			"bufferView":14,
			"componentType":5123,
			"count":99348,
			"type":"SCALAR"
		},
		{
			"bufferView":15,
			"componentType":5126,
			"count":2789,
			"max":[
				306.8338317871094,
				1.3411047916633834e-07,
				224.0278778076172
			],
			"min":[
				-82.43973541259766,
				1.341104507446289e-07,
				-219.4716339111328
			],
			"type":"VEC3"
		},
		{
			"bufferView":16,
			"componentType":5126,
			"count":2789,
			"type":"VEC3"
		},
		{
			"bufferView":17,
			"componentType":5126,
			"count":2789,
			"type":"VEC2"
		},
		{
			"bufferView":18,
			"componentType":5123,
			"count":10296,
			"type":"SCALAR"
		}
	],
	"bufferViews":[
		{
			"buffer":0,
			"byteLength":8496,
			"byteOffset":0,
			"target":34962
		},
		{
			"buffer":0,
			"byteLength":8496,
			"byteOffset":8496,
			"target":34962
		},
		{
			"buffer":0,
			"byteLength":4236,
			"byteOffset":16992,
			"target":34963
		},
		{
			"buffer":0,
			"byteLength":136224,
			"byteOffset":21228,
			"target":34962
		},
		{
			"buffer":0,
			"byteLength":136224,
			"byteOffset":157452,
			"target":34962
		},
		{
			"buffer":0,
			"byteLength":90816,
			"byteOffset":293676,
			"target":34962
		},
		{
			"buffer":0,
			"byteLength":34056,
			"byteOffset":384492,
			"target":34963
		},
		{
			"buffer":0,
			"byteLength":1158912,
			"byteOffset":418548,
			"target":34962
		},
		{
			"buffer":0,
			"byteLength":1158912,
			"byteOffset":1577460,
			"target":34962
		},
		{
			"buffer":0,
			"byteLength":772608,
			"byteOffset":2736372,
			"target":34962
		},
		{
			"buffer":0,
			"byteLength":579456,
			"byteOffset":3508980,
			"target":34963
		},
		{
			"buffer":0,
			"byteLength":722568,
			"byteOffset":4088436,
			"target":34962
		},
		{
			"buffer":0,
			"byteLength":722568,
			"byteOffset":4811004,
			"target":34962
		},
		{
			"buffer":0,
			"byteLength":481712,
			"byteOffset":5533572,
			"target":34962
		},
		{
			"buffer":0,
			"byteLength":198696,
			"byteOffset":6015284,
			"target":34963
		},
		{
			"buffer":0,
			"byteLength":33468,
			"byteOffset":6213980,
			"target":34962
		},
		{
			"buffer":0,
			"byteLength":33468,
			"byteOffset":6247448,
			"target":34962
		},
		{
			"buffer":0,
			"byteLength":22312,
			"byteOffset":6280916,
			"target":34962
		},
		{
			"buffer":0,
			"byteLength":20592,
			"byteOffset":6303228,
			"target":34963
		}
	],
	"samplers":[
		{
			"magFilter":9729,
			"minFilter":9987
		}
	],
	"buffers":[
		{
			"byteLength":6323820,
			"uri":"park.bin"
		}
	]
}
