{
	"asset":{
		"generator":"Khronos glTF Blender I/O v5.0.21",
		"version":"2.0"
	},
	"scene":0,
	"scenes":[
		{
			"name":"Scene",
			"nodes":[
				0,
				1,
				2,
				3,
				4,
				5,
				6,
				7,
				8,
				9,
				10,
				11,
				12,
				13,
				14,
				15,
				16
			]
		}
	],
	"nodes":[
		{
			"name":"terrain_lattice",
			"scale":[
				192.5167999267578,
				1,
				92.95311737060547
			]
		},
		{
			"name":"sidewalk_NE_curve"
		},
		{
			"name":"sidewalk_lattice",
			"rotation":[
				0,
				0.9599183201789856,
				0,
				0.280280202627182
			],
			"scale":[
				-46.5595703125,
				-6.7277703285217285,
				-36.296875
			],
			"translation":[
				-0.6061477065086365,
				0,
				-7.095494747161865
			]
		},
		{
			"name":"sidewalk_NW_curve",
			"translation":[
				-0.08094780892133713,
				-0.024562712758779526,
				0.03076908364892006
			]
		},
		{
			"name":"sidewalk_SW_curve",
			"translation":[
				-0.08094780892133713,
				-0.024562712758779526,
				0.03076908364892006
			]
		},
		{
			"name":"sidewalk_SE_curve",
			"translation":[
				-0.08094780892133713,
				-0.024562712758779526,
				0.03076908364892006
			]
		},
		{
			"mesh":0,
			"name":"corner_navigation_surface",
			"rotation":[
				0,
				-0.27329131960868835,
				0,
				0.9619313478469849
			],
			"scale":[
				10.629532814025879,
				10.629531860351562,
				10.629532814025879
			],
			"translation":[
				-1.3580667972564697,
				-0.20513492822647095,
				-6.111300945281982
			]
		},
		{
			"mesh":1,
			"name":"Building.001",
			"rotation":[
				0,
				-0.2708512842655182,
				0,
				0.9626212120056152
			],
			"scale":[
				17.72396469116211,
				10,
				17.72396469116211
			],
			"translation":[
				-14.373104095458984,
				7.665655136108398,
				-51.63671112060547
			]
		},
		{
			"mesh":2,
			"name":"Building.002",
			"rotation":[
				0,
				-0.2708512842655182,
				0,
				0.9626212120056152
			],
			"scale":[
				7.142223834991455,
				10,
				12.805887222290039
			],
			"translation":[
				49.25184631347656,
				7.665655136108398,
				-7.431429862976074
			]
		},
		{
			"mesh":3,
			"name":"Building.003",
			"rotation":[
				0,
				-0.8721967339515686,
				0,
				0.48915523290634155
			],
			"scale":[
				7.142223834991455,
				10,
				12.805886268615723
			],
			"translation":[
				50.14617156982422,
				7.665655136108398,
				-34.644508361816406
			]
		},
		{
			"mesh":4,
			"name":"Building.004",
			"rotation":[
				0,
				-0.2708512842655182,
				0,
				0.9626212120056152
			],
			"scale":[
				10.649840354919434,
				10,
				19.09498405456543
			],
			"translation":[
				86.30252075195312,
				7.665655136108398,
				-9.986648559570312
			]
		},
		{
			"mesh":5,
			"name":"Building.005",
			"rotation":[
				0.9626212120056152,
				0,
				0.2708512842655182,
				0
			],
			"scale":[
				-15.25299072265625,
				-10,
				-19.09498405456543
			],
			"translation":[
				28.810100555419922,
				7.665655136108398,
				48.016815185546875
			]
		},
		{
			"mesh":6,
			"name":"sidewalk_NE"
		},
		{
			"mesh":7,
			"name":"sidewalk_NW"
		},
		{
			"mesh":8,
			"name":"sidewalk_SE"
		},
		{
			"mesh":9,
			"name":"sidewalk_SW"
		},
		{
			"mesh":10,
			"name":"terrain"
		}
	],
	"materials":[
		{
			"doubleSided":true,
			"name":"Building",
			"pbrMetallicRoughness":{
				"baseColorFactor":[
					0.22025690972805023,
					0.22025690972805023,
					0.22025690972805023,
					1
				],
				"metallicFactor":0,
				"roughnessFactor":0.5
			}
		},
		{
			"doubleSided":true,
			"name":"sidewalk",
			"pbrMetallicRoughness":{
				"baseColorTexture":{
					"index":0
				},
				"metallicFactor":0,
				"roughnessFactor":0.5
			}
		},
		{
			"alphaMode":"BLEND",
			"doubleSided":true,
			"name":"street_corner_satellite",
			"pbrMetallicRoughness":{
				"baseColorTexture":{
					"index":1
				},
				"metallicFactor":0,
				"roughnessFactor":0.5
			}
		}
	],
	"meshes":[
		{
			"name":"Plane",
			"primitives":[
				{
					"attributes":{
						"POSITION":0,
						"NORMAL":1,
						"TEXCOORD_0":2
					},
					"indices":3
				}
			]
		},
		{
			"name":"Cube",
			"primitives":[
				{
					"attributes":{
						"POSITION":4,
						"NORMAL":5,
						"TEXCOORD_0":6
					},
					"indices":7,
					"material":0
				}
			]
		},
		{
			"name":"Cube.001",
			"primitives":[
				{
					"attributes":{
						"POSITION":8,
						"NORMAL":9,
						"TEXCOORD_0":10
					},
					"indices":7,
					"material":0
				}
			]
		},
		{
			"name":"Cube.002",
			"primitives":[
				{
					"attributes":{
						"POSITION":11,
						"NORMAL":12,
						"TEXCOORD_0":13
					},
					"indices":7,
					"material":0
				}
			]
		},
		{
			"name":"Cube.003",
			"primitives":[
				{
					"attributes":{
						"POSITION":14,
						"NORMAL":15,
						"TEXCOORD_0":16
					},
					"indices":7,
					"material":0
				}
			]
		},
		{
			"name":"Cube.004",
			"primitives":[
				{
					"attributes":{
						"POSITION":17,
						"NORMAL":18,
						"TEXCOORD_0":19
					},
					"indices":7,
					"material":0
				}
			]
		},
		{
			"name":"Cube.005",
			"primitives":[
				{
					"attributes":{
						"POSITION":20,
						"NORMAL":21,
						"TEXCOORD_0":22
					},
					"indices":23,
					"material":1
				}
			]
		},
		{
			"name":"Cube.006",
			"primitives":[
				{
					"attributes":{
						"POSITION":24,
						"NORMAL":25,
						"TEXCOORD_0":26
					},
					"indices":27,
					"material":1
				}
			]
		},
		{
			"name":"Cube.008",
			"primitives":[
				{
					"attributes":{
						"POSITION":28,
						"NORMAL":29,
						"TEXCOORD_0":30
					},
					"indices":31,
					"material":1
				}
			]
		},
		{
			"name":"Cube.007",
			"primitives":[
				{
					"attributes":{
						"POSITION":32,
						"NORMAL":33,
						"TEXCOORD_0":34
					},
					"indices":35,
					"material":1
				}
			]
		},
		{
			"name":"street_corner_satellite.001",
			"primitives":[
				{
					"attributes":{
						"POSITION":36,
						"NORMAL":37,
						"TEXCOORD_0":38
					},
					"indices":39,
					"material":2
				}
			]
		}
	],
	"textures":[
		{
			"sampler":0,
			"source":0
		},
		{
			"sampler":1,
			"source":1
		}
	],
	"images":[
		{
			"mimeType":"image/jpeg",
			"name":"sidewalk_concrete",
			"uri":"textures/sidewalk_concrete.jpg"
		},
		{
			"mimeType":"image/png",
			"name":"street_corner_satellite",
			"uri":"textures/street_corner_satellite.png"
		}
	],
	"accessors":[
		{
			"bufferView":0,
			"componentType":5126,
			"count":4,
			"max":[
				1,
				-0.01104561798274517,
				1
			],
			"min":[
				-1,
				-0.07072803378105164,
				-1
			],
			"type":"VEC3"
		},
		{
			"bufferView":1,
			"componentType":5126,
			"count":4,
			"type":"VEC3"
		},
		{
			"bufferView":2,
			"componentType":5126,
			"count":4,
			"type":"VEC2"
		},
		{
			"bufferView":3,
			"componentType":5123,
			"count":6,
			"type":"SCALAR"
		},
		{
			"bufferView":4,
			"componentType":5126,
			"count":24,
			"max":[
				1,
				1,
				1
			],
			"min":[
				-1,
				-1,
				-1
			],
			"type":"VEC3"
		},
		{
			"bufferView":5,
			"componentType":5126,
			"count":24,
			"type":"VEC3"
		},
		{
			"bufferView":6,
			"componentType":5126,
			"count":24,
			"type":"VEC2"
		},
		{
			"bufferView":7,
			"componentType":5123,
			"count":36,
			"type":"SCALAR"
		},
		{
			"bufferView":8,
			"componentType":5126,
			"count":24,
			"max":[
				1,
				1,
				1
			],
			"min":[
				-1,
				-1,
				-1
			],
			"type":"VEC3"
		},
		{
			"bufferView":9,
			"componentType":5126,
			"count":24,
			"type":"VEC3"
		},
		{
			"bufferView":10,
			"componentType":5126,
			"count":24,
			"type":"VEC2"
		},
		{
			"bufferView":11,
			"componentType":5126,
			"count":24,
			"max":[
				1,
				1,
				1
			],
			"min":[
				-1,
				-1,
				-1
			],
			"type":"VEC3"
		},
		{
			"bufferView":12,
			"componentType":5126,
			"count":24,
			"type":"VEC3"
		},
		{
			"bufferView":13,
			"componentType":5126,
			"count":24,
			"type":"VEC2"
		},
		{
			"bufferView":14,
			"componentType":5126,
			"count":24,
			"max":[
				1,
				1,
				1
			],
			"min":[
				-1,
				-1,
				-1
			],
			"type":"VEC3"
		},
		{
			"bufferView":15,
			"componentType":5126,
			"count":24,
			"type":"VEC3"
		},
		{
			"bufferView":16,
			"componentType":5126,
			"count":24,
			"type":"VEC2"
		},
		{
			"bufferView":17,
			"componentType":5126,
			"count":24,
			"max":[
				1,
				1,
				1
			],
			"min":[
				-1,
				-1,
				-1
			],
			"type":"VEC3"
		},
		{
			"bufferView":18,
			"componentType":5126,
			"count":24,
			"type":"VEC3"
		},
		{
			"bufferView":19,
			"componentType":5126,
			"count":24,
			"type":"VEC2"
		},
		{
			"bufferView":20,
			"componentType":5126,
			"count":2186,
			"max":[
				77.26824951171875,
				0.10000021755695343,
				35.71413803100586
			],
			"min":[
				10.977705001831055,
				-0.3156110942363739,
				-45.113800048828125
			],
			"type":"VEC3"
		},
		{
			"bufferView":21,
			"componentType":5126,
			"count":2186,
			"type":"VEC3"
		},
		{
			"bufferView":22,
			"componentType":5126,
			"count":2186,
			"type":"VEC2"
		},
		{
			"bufferView":23,
			"componentType":5123,
			"count":4248,
			"type":"SCALAR"
		},
		{
			"bufferView":24,
			"componentType":5126,
			"count":2558,
			"max":[
				14.553895950317383,
				-0.004930527880787849,
				-18.0793514251709
			],
			"min":[
				-87.53880310058594,
				-8.512884140014648,
				-46.21175003051758
			],
			"type":"VEC3"
		},
		{
			"bufferView":25,
			"componentType":5126,
			"count":2558,
			"type":"VEC3"
		},
		{
			"bufferView":26,
			"componentType":5126,
			"count":2558,
			"type":"VEC2"
		},
		{
			"bufferView":27,
			"componentType":5123,
			"count":4320,
			"type":"SCALAR"
		},
		{
			"bufferView":28,
			"componentType":5126,
			"count":2374,
			"max":[
				68.86560821533203,
				0.10000018775463104,
				44.997344970703125
			],
			"min":[
				-21.09809684753418,
				-1.0681108236312866,
				5.027118682861328
			],
			"type":"VEC3"
		},
		{
			"bufferView":29,
			"componentType":5126,
			"count":2374,
			"type":"VEC3"
		},
		{
			"bufferView":30,
			"componentType":5126,
			"count":2374,
			"type":"VEC2"
		},
		{
			"bufferView":31,
			"componentType":5123,
			"count":4320,
			"type":"SCALAR"
		},
		{
			"bufferView":32,
			"componentType":5126,
			"count":3130,
			"max":[
				-12.77524471282959,
				-0.6117658019065857,
				46.56451416015625
			],
			"min":[
				-96.0233154296875,
				-9.43852710723877,
				-34.63298797607422
			],
			"type":"VEC3"
		},
		{
			"bufferView":33,
			"componentType":5126,
			"count":3130,
			"type":"VEC3"
		},
		{
			"bufferView":34,
			"componentType":5126,
			"count":3130,
			"type":"VEC2"
		},
		{
			"bufferView":35,
			"componentType":5123,
			"count":5400,
			"type":"SCALAR"
		},
		{
			"bufferView":36,
			"componentType":5126,
			"count":672,
			"max":[
				96.20050811767578,
				0,
				45.66129684448242
			],
			"min":[
				-96.20050811767578,
				-9.355208396911621,
				-45.66129684448242
			],
			"type":"VEC3"
		},
		{
			"bufferView":37,
			"componentType":5126,
			"count":672,
			"type":"VEC3"
		},
		{
			"bufferView":38,
			"componentType":5126,
			"count":672,
			"type":"VEC2"
		},
		{
			"bufferView":39,
			"componentType":5123,
			"count":2106,
			"type":"SCALAR"
		}
	],
	"bufferViews":[
		{
			"buffer":0,
			"byteLength":48,
			"byteOffset":0,
			"target":34962
		},
		{
			"buffer":0,
			"byteLength":48,
			"byteOffset":48,
			"target":34962
		},
		{
			"buffer":0,
			"byteLength":32,
			"byteOffset":96,
			"target":34962
		},
		{
			"buffer":0,
			"byteLength":12,
			"byteOffset":128,
			"target":34963
		},
		{
			"buffer":0,
			"byteLength":288,
			"byteOffset":140,
			"target":34962
		},
		{
			"buffer":0,
			"byteLength":288,
			"byteOffset":428,
			"target":34962
		},
		{
			"buffer":0,
			"byteLength":192,
			"byteOffset":716,
			"target":34962
		},
		{
			"buffer":0,
			"byteLength":72,
			"byteOffset":908,
			"target":34963
		},
		{
			"buffer":0,
			"byteLength":288,
			"byteOffset":980,
			"target":34962
		},
		{
			"buffer":0,
			"byteLength":288,
			"byteOffset":1268,
			"target":34962
		},
		{
			"buffer":0,
			"byteLength":192,
			"byteOffset":1556,
			"target":34962
		},
		{
			"buffer":0,
			"byteLength":288,
			"byteOffset":1748,
			"target":34962
		},
		{
			"buffer":0,
			"byteLength":288,
			"byteOffset":2036,
			"target":34962
		},
		{
			"buffer":0,
			"byteLength":192,
			"byteOffset":2324,
			"target":34962
		},
		{
			"buffer":0,
			"byteLength":288,
			"byteOffset":2516,
			"target":34962
		},
		{
			"buffer":0,
			"byteLength":288,
			"byteOffset":2804,
			"target":34962
		},
		{
			"buffer":0,
			"byteLength":192,
			"byteOffset":3092,
			"target":34962
		},
		{
			"buffer":0,
			"byteLength":288,
			"byteOffset":3284,
			"target":34962
		},
		{
			"buffer":0,
			"byteLength":288,
			"byteOffset":3572,
			"target":34962
		},
		{
			"buffer":0,
			"byteLength":192,
			"byteOffset":3860,
			"target":34962
		},
		{
			"buffer":0,
			"byteLength":26232,
			"byteOffset":4052,
			"target":34962
		},
		{
			"buffer":0,
			"byteLength":26232,
			"byteOffset":30284,
			"target":34962
		},
		{
			"buffer":0,
			"byteLength":17488,
			"byteOffset":56516,
			"target":34962
		},
		{
			"buffer":0,
			"byteLength":8496,
			"byteOffset":74004,
			"target":34963
		},
		{
			"buffer":0,
			"byteLength":30696,
			"byteOffset":82500,
			"target":34962
		},
		{
			"buffer":0,
			"byteLength":30696,
			"byteOffset":113196,
			"target":34962
		},
		{
			"buffer":0,
			"byteLength":20464,
			"byteOffset":143892,
			"target":34962
		},
		{
			"buffer":0,
			"byteLength":8640,
			"byteOffset":164356,
			"target":34963
		},
		{
			"buffer":0,
			"byteLength":28488,
			"byteOffset":172996,
			"target":34962
		},
		{
			"buffer":0,
			"byteLength":28488,
			"byteOffset":201484,
			"target":34962
		},
		{
			"buffer":0,
			"byteLength":18992,
			"byteOffset":229972,
			"target":34962
		},
		{
			"buffer":0,
			"byteLength":8640,
			"byteOffset":248964,
			"target":34963
		},
		{
			"buffer":0,
			"byteLength":37560,
			"byteOffset":257604,
			"target":34962
		},
		{
			"buffer":0,
			"byteLength":37560,
			"byteOffset":295164,
			"target":34962
		},
		{
			"buffer":0,
			"byteLength":25040,
			"byteOffset":332724,
			"target":34962
		},
		{
			"buffer":0,
			"byteLength":10800,
			"byteOffset":357764,
			"target":34963
		},
		{
			"buffer":0,
			"byteLength":8064,
			"byteOffset":368564,
			"target":34962
		},
		{
			"buffer":0,
			"byteLength":8064,
			"byteOffset":376628,
			"target":34962
		},
		{
			"buffer":0,
			"byteLength":5376,
			"byteOffset":384692,
			"target":34962
		},
		{
			"buffer":0,
			"byteLength":4212,
			"byteOffset":390068,
			"target":34963
		}
	],
	"samplers":[
		{
			"magFilter":9729,
			"minFilter":9987
		},
		{
			"magFilter":9729,
			"minFilter":9987,
			"wrapS":33071,
			"wrapT":33071
		}
	],
	"buffers":[
		{
			"byteLength":394280,
			"uri":"street_corner.bin"
		}
	]
}
