{
	"asset":{
		"generator":"Khronos glTF Blender I/O v5.0.21",
		"version":"2.0"
	},
	"scene":0,
	"scenes":[
		{
			"name":"Scene",
			"nodes":[
				0
			]
		}
	],
	"nodes":[
		{
			"mesh":0,
			"name":"cone"
		}
	],
	"materials":[
		{
			"doubleSided":true,
			"emissiveFactor":[
				1,
				0.048743534833192825,
				0
			],
			"name":"sports.cone",
			"pbrMetallicRoughness":{
				"baseColorFactor":[
					0.8000000715255737,
					0.050917454063892365,
					0,
					1
				],
				"metallicFactor":0,
				"roughnessFactor":0.5
			}
		}
	],
	"meshes":[
		{
			"name":"Circle",
			"primitives":[
				{
					"attributes":{
						"POSITION":0,
						"NORMAL":1,
						"TEXCOORD_0":2
					},
					"indices":3,
					"material":0
				}
			]
		}
	],
	"accessors":[
		{
			"bufferView":0,
			"componentType":5126,
			"count":880,
			"max":[
				0.18656761944293976,
				0.42000001668930054,
				0.18656761944293976
			],
			"min":[
				-0.18656761944293976,
				0,
				-0.18656761944293976
			],
			"type":"VEC3"
		},
		{
			"bufferView":1,
			"componentType":5126,
			"count":880,
			"type":"VEC3"
		},
		{
			"bufferView":2,
			"componentType":5126,
			"count":880,
			"type":"VEC2"
		},
		{
			"bufferView":3,
			"componentType":5123,
			"count":1764,
			"type":"SCALAR"
		}
	],
	"bufferViews":[
		{
			"buffer":0,
			"byteLength":10560,
			"byteOffset":0,
			"target":34962
		},
		{
			"buffer":0,
			"byteLength":10560,
			"byteOffset":10560,
			"target":34962
		},
		{
			"buffer":0,
			"byteLength":7040,
			"byteOffset":21120,
			"target":34962
		},
		{
			"buffer":0,
			"byteLength":3528,
			"byteOffset":28160,
			"target":34963
		}
	],
	"buffers":[
		{
			"byteLength":31688,
			"uri":"cone.bin"
		}
	]
}
