{
	"asset":{
		"generator":"Khronos glTF Blender I/O v5.0.21",
		"version":"2.0"
	},
	"extensionsUsed":[
		"KHR_materials_specular",
		"KHR_materials_ior"
	],
	"scene":0,
	"scenes":[
		{
			"name":"Scene",
			"nodes":[
				0,
				1,
				2,
				3,
				4,
				5,
				6,
				7,
				8,
				9,
				10,
				11,
				12,
				13,
				14,
				15,
				16,
				17,
				18,
				19,
				20,
				21,
				22,
				23,
				24,
				25,
				26
			]
		}
	],
	"nodes":[
		{
			"mesh":0,
			"name":"red_walls"
		},
		{
			"mesh":1,
			"name":"Floor"
		},
		{
			"mesh":2,
			"name":"red_floor"
		},
		{
			"mesh":3,
			"name":"ramp_walls"
		},
		{
			"name":"RampSlope"
		},
		{
			"mesh":4,
			"name":"Cylinder",
			"translation":[
				1.3805627822875977,
				0.04809427261352539,
				-1.549056887626648
			]
		},
		{
			"mesh":5,
			"name":"Cylinder.001",
			"translation":[
				2.4885218143463135,
				0.11070877313613892,
				-1.549056887626648
			]
		},
		{
			"mesh":6,
			"name":"Cylinder.003",
			"translation":[
				4.700684070587158,
				0.30637913942337036,
				-1.549056887626648
			]
		},
		{
			"mesh":7,
			"name":"Cylinder.004",
			"translation":[
				5.885576248168945,
				0.40812772512435913,
				-1.549056887626648
			]
		},
		{
			"mesh":8,
			"name":"Cylinder.005",
			"translation":[
				7.037857532501221,
				0.5098763108253479,
				-1.549056887626648
			]
		},
		{
			"mesh":9,
			"name":"Cylinder.006",
			"translation":[
				8.063577651977539,
				0.5490103960037231,
				-1.549056887626648
			]
		},
		{
			"mesh":10,
			"name":"Cylinder.007",
			"translation":[
				2.136315107345581,
				0.08722832798957825,
				0.07892072200775146
			]
		},
		{
			"mesh":11,
			"name":"Cylinder.008",
			"translation":[
				3.3825180530548096,
				0.18115010857582092,
				0.07892072200775146
			]
		},
		{
			"mesh":12,
			"name":"Cylinder.009",
			"translation":[
				4.606762409210205,
				0.29855233430862427,
				0.07892072200775146
			]
		},
		{
			"mesh":13,
			"name":"Cylinder.010",
			"translation":[
				5.830788612365723,
				0.40812772512435913,
				0.07892072200775146
			]
		},
		{
			"mesh":14,
			"name":"Cylinder.011",
			"translation":[
				6.990896701812744,
				0.5098763108253479,
				0.07892072200775146
			]
		},
		{
			"mesh":15,
			"name":"Cylinder.012",
			"translation":[
				8.063577651977539,
				0.5490103960037231,
				0.07892072200775146
			]
		},
		{
			"mesh":16,
			"name":"Cylinder.013",
			"rotation":[
				0,
				0,
				-0.6784197092056274,
				0.7346745729446411
			],
			"scale":[
				0.9919953942298889,
				6.791607856750488,
				0.9919953942298889
			],
			"translation":[
				1.3414287567138672,
				1.0352561473846436,
				-1.549056887626648
			]
		},
		{
			"mesh":17,
			"name":"Cylinder.014",
			"rotation":[
				0,
				0,
				-0.6784197092056274,
				0.7346745729446411
			],
			"scale":[
				0.9919953942298889,
				6.791607856750488,
				0.9919953942298889
			],
			"translation":[
				1.3414287567138672,
				0.5517803430557251,
				-1.549056887626648
			]
		},
		{
			"mesh":18,
			"name":"Cylinder.015",
			"rotation":[
				0,
				0,
				-0.6784197688102722,
				0.7346745729446411
			],
			"scale":[
				0.8841361999511719,
				6.053159236907959,
				0.8841361999511719
			],
			"translation":[
				2.081467390060425,
				1.092904806137085,
				0.0783466175198555
			]
		},
		{
			"mesh":19,
			"name":"Cylinder.016",
			"rotation":[
				0,
				0,
				-0.6784197688102722,
				0.7346745729446411
			],
			"scale":[
				0.8841361999511719,
				6.053159236907959,
				0.8841361999511719
			],
			"translation":[
				2.081467390060425,
				0.6199336051940918,
				0.0783466175198555
			]
		},
		{
			"mesh":20,
			"name":"Cylinder.017",
			"translation":[
				8.063577651977539,
				0.5490103960037231,
				-2.946643114089966
			]
		},
		{
			"mesh":21,
			"name":"Cylinder.018",
			"rotation":[
				-0.7071068286895752,
				0,
				0,
				0.7071068286895752
			],
			"scale":[
				0.9919952750205994,
				1.4619923830032349,
				0.9919952750205994
			],
			"translation":[
				8.06509780883789,
				1.5730230808258057,
				-1.549056887626648
			]
		},
		{
			"mesh":22,
			"name":"Cylinder.019",
			"rotation":[
				-0.7071068286895752,
				0,
				0,
				0.7071068286895752
			],
			"scale":[
				0.9919952750205994,
				1.4619923830032349,
				0.9919952750205994
			],
			"translation":[
				8.06509780883789,
				1.089508056640625,
				-1.549056887626648
			]
		},
		{
			"mesh":23,
			"name":"Cylinder.020",
			"rotation":[
				-0.7071068286895752,
				0,
				0,
				0.7071068286895752
			],
			"scale":[
				0.9919951558113098,
				0.6520055532455444,
				0.9919951558113098
			],
			"translation":[
				8.06509780883789,
				1.5730230808258057,
				0.7387839555740356
			]
		},
		{
			"mesh":24,
			"name":"Cylinder.021",
			"rotation":[
				-0.7071068286895752,
				0,
				0,
				0.7071068286895752
			],
			"scale":[
				0.9919951558113098,
				0.6520055532455444,
				0.9919951558113098
			],
			"translation":[
				8.06509780883789,
				1.089508056640625,
				0.7387839555740356
			]
		},
		{
			"mesh":25,
			"name":"Cylinnder.022",
			"translation":[
				3.6016688346862793,
				0.21245735883712769,
				-1.549056887626648
			]
		}
	],
	"materials":[
		{
			"doubleSided":true,
			"extensions":{
				"KHR_materials_specular":{
					"specularFactor":0
				},
				"KHR_materials_ior":{
					"ior":1.4500000476837158
				}
			},
			"name":"irglm_red_tile",
			"pbrMetallicRoughness":{
				"baseColorTexture":{
					"index":0
				},
				"metallicFactor":0,
				"roughnessFactor":0.5
			}
		},
		{
			"doubleSided":true,
			"extensions":{
				"KHR_materials_specular":{
					"specularFactor":0.5083798766136169
				},
				"KHR_materials_ior":{
					"ior":1.4500000476837158
				}
			},
			"name":"irglm_speckle_floor",
			"pbrMetallicRoughness":{
				"baseColorTexture":{
					"index":1
				},
				"metallicFactor":0,
				"roughnessFactor":0.8128491640090942
			}
		},
		{
			"doubleSided":true,
			"name":"RampMetal",
			"pbrMetallicRoughness":{
				"baseColorFactor":[
					0.2265811562538147,
					0.2265811562538147,
					0.2265811562538147,
					1
				],
				"metallicFactor":0.8548805713653564,
				"roughnessFactor":0.44413408637046814
			}
		}
	],
	"meshes":[
		{
			"name":"Mesh",
			"primitives":[
				{
					"attributes":{
						"POSITION":0,
						"NORMAL":1,
						"TEXCOORD_0":2
					},
					"indices":3,
					"material":0
				}
			]
		},
		{
			"name":"Mesh.002",
			"primitives":[
				{
					"attributes":{
						"POSITION":4,
						"NORMAL":5,
						"TEXCOORD_0":6
					},
					"indices":7,
					"material":1
				}
			]
		},
		{
			"name":"Mesh.004",
			"primitives":[
				{
					"attributes":{
						"POSITION":8,
						"NORMAL":9,
						"TEXCOORD_0":10
					},
					"indices":11,
					"material":0
				}
			]
		},
		{
			"name":"Mesh.003",
			"primitives":[
				{
					"attributes":{
						"POSITION":12,
						"NORMAL":13
					},
					"indices":14,
					"material":2
				}
			]
		},
		{
			"name":"Cylinder",
			"primitives":[
				{
					"attributes":{
						"POSITION":15,
						"NORMAL":16,
						"TEXCOORD_0":17
					},
					"indices":18,
					"material":2
				}
			]
		},
		{
			"name":"Cylinder",
			"primitives":[
				{
					"attributes":{
						"POSITION":19,
						"NORMAL":20,
						"TEXCOORD_0":21
					},
					"indices":18,
					"material":2
				}
			]
		},
		{
			"name":"Cylinder",
			"primitives":[
				{
					"attributes":{
						"POSITION":22,
						"NORMAL":23,
						"TEXCOORD_0":24
					},
					"indices":18,
					"material":2
				}
			]
		},
		{
			"name":"Cylinder",
			"primitives":[
				{
					"attributes":{
						"POSITION":25,
						"NORMAL":26,
						"TEXCOORD_0":27
					},
					"indices":18,
					"material":2
				}
			]
		},
		{
			"name":"Cylinder",
			"primitives":[
				{
					"attributes":{
						"POSITION":28,
						"NORMAL":29,
						"TEXCOORD_0":30
					},
					"indices":18,
					"material":2
				}
			]
		},
		{
			"name":"Cylinder",
			"primitives":[
				{
					"attributes":{
						"POSITION":31,
						"NORMAL":32,
						"TEXCOORD_0":33
					},
					"indices":18,
					"material":2
				}
			]
		},
		{
			"name":"Cylinder",
			"primitives":[
				{
					"attributes":{
						"POSITION":34,
						"NORMAL":35,
						"TEXCOORD_0":36
					},
					"indices":18,
					"material":2
				}
			]
		},
		{
			"name":"Cylinder",
			"primitives":[
				{
					"attributes":{
						"POSITION":37,
						"NORMAL":38,
						"TEXCOORD_0":39
					},
					"indices":18,
					"material":2
				}
			]
		},
		{
			"name":"Cylinder",
			"primitives":[
				{
					"attributes":{
						"POSITION":40,
						"NORMAL":41,
						"TEXCOORD_0":42
					},
					"indices":18,
					"material":2
				}
			]
		},
		{
			"name":"Cylinder",
			"primitives":[
				{
					"attributes":{
						"POSITION":43,
						"NORMAL":44,
						"TEXCOORD_0":45
					},
					"indices":18,
					"material":2
				}
			]
		},
		{
			"name":"Cylinder",
			"primitives":[
				{
					"attributes":{
						"POSITION":46,
						"NORMAL":47,
						"TEXCOORD_0":48
					},
					"indices":18,
					"material":2
				}
			]
		},
		{
			"name":"Cylinder",
			"primitives":[
				{
					"attributes":{
						"POSITION":49,
						"NORMAL":50,
						"TEXCOORD_0":51
					},
					"indices":18,
					"material":2
				}
			]
		},
		{
			"name":"Cylinder.001",
			"primitives":[
				{
					"attributes":{
						"POSITION":52,
						"NORMAL":53,
						"TEXCOORD_0":54
					},
					"indices":18,
					"material":2
				}
			]
		},
		{
			"name":"Cylinder.001",
			"primitives":[
				{
					"attributes":{
						"POSITION":55,
						"NORMAL":56,
						"TEXCOORD_0":57
					},
					"indices":18,
					"material":2
				}
			]
		},
		{
			"name":"Cylinder.001",
			"primitives":[
				{
					"attributes":{
						"POSITION":58,
						"NORMAL":59,
						"TEXCOORD_0":60
					},
					"indices":18,
					"material":2
				}
			]
		},
		{
			"name":"Cylinder.001",
			"primitives":[
				{
					"attributes":{
						"POSITION":61,
						"NORMAL":62,
						"TEXCOORD_0":63
					},
					"indices":18,
					"material":2
				}
			]
		},
		{
			"name":"Cylinder",
			"primitives":[
				{
					"attributes":{
						"POSITION":64,
						"NORMAL":65,
						"TEXCOORD_0":66
					},
					"indices":18,
					"material":2
				}
			]
		},
		{
			"name":"Cylinder.001",
			"primitives":[
				{
					"attributes":{
						"POSITION":67,
						"NORMAL":68,
						"TEXCOORD_0":69
					},
					"indices":18,
					"material":2
				}
			]
		},
		{
			"name":"Cylinder.001",
			"primitives":[
				{
					"attributes":{
						"POSITION":70,
						"NORMAL":71,
						"TEXCOORD_0":72
					},
					"indices":18,
					"material":2
				}
			]
		},
		{
			"name":"Cylinder.001",
			"primitives":[
				{
					"attributes":{
						"POSITION":73,
						"NORMAL":74,
						"TEXCOORD_0":75
					},
					"indices":18,
					"material":2
				}
			]
		},
		{
			"name":"Cylinder.001",
			"primitives":[
				{
					"attributes":{
						"POSITION":76,
						"NORMAL":77,
						"TEXCOORD_0":78
					},
					"indices":18,
					"material":2
				}
			]
		},
		{
			"name":"Cylinder",
			"primitives":[
				{
					"attributes":{
						"POSITION":79,
						"NORMAL":80,
						"TEXCOORD_0":81
					},
					"indices":18,
					"material":2
				}
			]
		}
	],
	"textures":[
		{
			"sampler":0,
			"source":0
		},
		{
			"sampler":0,
			"source":1
		}
	],
	"images":[
		{
			"mimeType":"image/jpeg",
			"name":"irglm_red_tile",
			"uri":"textures/irglm_red_tile.jpg"
		},
		{
			"mimeType":"image/jpeg",
			"name":"irglm_speckle_floor",
			"uri":"textures/irglm_speckle_floor.jpg"
		}
	],
	"accessors":[
		{
			"bufferView":0,
			"componentType":5126,
			"count":233,
			"max":[
				11.650870323181152,
				1.628082036972046,
				2.75260066986084
			],
			"min":[
				-2.1679348945617676,
				0,
				-5.162843704223633
			],
			"type":"VEC3"
		},
		{
			"bufferView":1,
			"componentType":5126,
			"count":233,
			"type":"VEC3"
		},
		{
			"bufferView":2,
			"componentType":5126,
			"count":233,
			"type":"VEC2"
		},
		{
			"bufferView":3,
			"componentType":5123,
			"count":534,
			"type":"SCALAR"
		},
		{
			"bufferView":4,
			"componentType":5126,
			"count":101,
			"max":[
				9.50999927520752,
				0.5099999904632568,
				0.6113601922988892
			],
			"min":[
				0,
				0,
				-3.004460096359253
			],
			"type":"VEC3"
		},
		{
			"bufferView":5,
			"componentType":5126,
			"count":101,
			"type":"VEC3"
		},
		{
			"bufferView":6,
			"componentType":5126,
			"count":101,
			"type":"VEC2"
		},
		{
			"bufferView":7,
			"componentType":5123,
			"count":207,
			"type":"SCALAR"
		},
		{
			"bufferView":8,
			"componentType":5126,
			"count":16,
			"max":[
				11.50999927520752,
				0.507874608039856,
				2.6113600730895996
			],
			"min":[
				-2,
				0,
				-5.004459857940674
			],
			"type":"VEC3"
		},
		{
			"bufferView":9,
			"componentType":5126,
			"count":16,
			"type":"VEC3"
		},
		{
			"bufferView":10,
			"componentType":5126,
			"count":16,
			"type":"VEC2"
		},
		{
			"bufferView":11,
			"componentType":5123,
			"count":36,
			"type":"SCALAR"
		},
		{
			"bufferView":12,
			"componentType":5126,
			"count":768,
			"max":[
				8.149999618530273,
				0.6098812222480774,
				0.6113601922988892
			],
			"min":[
				1.2999999523162842,
				0,
				-3.004460096359253
			],
			"type":"VEC3"
		},
		{
			"bufferView":13,
			"componentType":5126,
			"count":768,
			"type":"VEC3"
		},
		{
			"bufferView":14,
			"componentType":5123,
			"count":1428,
			"type":"SCALAR"
		},
		{
			"bufferView":15,
			"componentType":5126,
			"count":66,
			"max":[
				0.023992953822016716,
				1,
				0.023992950096726418
			],
			"min":[
				-0.023993106558918953,
				0,
				-0.023993030190467834
			],
			"type":"VEC3"
		},
		{
			"bufferView":16,
			"componentType":5126,
			"count":66,
			"type":"VEC3"
		},
		{
			"bufferView":17,
			"componentType":5126,
			"count":66,
			"type":"VEC2"
		},
		{
			"bufferView":18,
			"componentType":5123,
			"count":180,
			"type":"SCALAR"
		},
		{
			"bufferView":19,
			"componentType":5126,
			"count":66,
			"max":[
				0.023992953822016716,
				1,
				0.023992950096726418
			],
			"min":[
				-0.023993106558918953,
				0,
				-0.023993030190467834
			],
			"type":"VEC3"
		},
		{
			"bufferView":20,
			"componentType":5126,
			"count":66,
			"type":"VEC3"
		},
		{
			"bufferView":21,
			"componentType":5126,
			"count":66,
			"type":"VEC2"
		},
		{
			"bufferView":22,
			"componentType":5126,
			"count":66,
			"max":[
				0.023992953822016716,
				1,
				0.023992950096726418
			],
			"min":[
				-0.023993106558918953,
				0,
				-0.023993030190467834
			],
			"type":"VEC3"
		},
		{
			"bufferView":23,
			"componentType":5126,
			"count":66,
			"type":"VEC3"
		},
		{
			"bufferView":24,
			"componentType":5126,
			"count":66,
			"type":"VEC2"
		},
		{
			"bufferView":25,
			"componentType":5126,
			"count":66,
			"max":[
				0.023992953822016716,
				1,
				0.023992950096726418
			],
			"min":[
				-0.023993106558918953,
				0,
				-0.023993030190467834
			],
			"type":"VEC3"
		},
		{
			"bufferView":26,
			"componentType":5126,
			"count":66,
			"type":"VEC3"
		},
		{
			"bufferView":27,
			"componentType":5126,
			"count":66,
			"type":"VEC2"
		},
		{
			"bufferView":28,
			"componentType":5126,
			"count":66,
			"max":[
				0.023992953822016716,
				1,
				0.023992950096726418
			],
			"min":[
				-0.023993106558918953,
				0,
				-0.023993030190467834
			],
			"type":"VEC3"
		},
		{
			"bufferView":29,
			"componentType":5126,
			"count":66,
			"type":"VEC3"
		},
		{
			"bufferView":30,
			"componentType":5126,
			"count":66,
			"type":"VEC2"
		},
		{
			"bufferView":31,
			"componentType":5126,
			"count":66,
			"max":[
				0.023992953822016716,
				1,
				0.023992950096726418
			],
			"min":[
				-0.023993106558918953,
				0,
				-0.023993030190467834
			],
			"type":"VEC3"
		},
		{
			"bufferView":32,
			"componentType":5126,
			"count":66,
			"type":"VEC3"
		},
		{
			"bufferView":33,
			"componentType":5126,
			"count":66,
			"type":"VEC2"
		},
		{
			"bufferView":34,
			"componentType":5126,
			"count":66,
			"max":[
				0.023992953822016716,
				1,
				0.023992950096726418
			],
			"min":[
				-0.023993106558918953,
				0,
				-0.023993030190467834
			],
			"type":"VEC3"
		},
		{
			"bufferView":35,
			"componentType":5126,
			"count":66,
			"type":"VEC3"
		},
		{
			"bufferView":36,
			"componentType":5126,
			"count":66,
			"type":"VEC2"
		},
		{
			"bufferView":37,
			"componentType":5126,
			"count":66,
			"max":[
				0.023992953822016716,
				1,
				0.023992950096726418
			],
			"min":[
				-0.023993106558918953,
				0,
				-0.023993030190467834
			],
			"type":"VEC3"
		},
		{
			"bufferView":38,
			"componentType":5126,
			"count":66,
			"type":"VEC3"
		},
		{
			"bufferView":39,
			"componentType":5126,
			"count":66,
			"type":"VEC2"
		},
		{
			"bufferView":40,
			"componentType":5126,
			"count":66,
			"max":[
				0.023992953822016716,
				1,
				0.023992950096726418
			],
			"min":[
				-0.023993106558918953,
				0,
				-0.023993030190467834
			],
			"type":"VEC3"
		},
		{
			"bufferView":41,
			"componentType":5126,
			"count":66,
			"type":"VEC3"
		},
		{
			"bufferView":42,
			"componentType":5126,
			"count":66,
			"type":"VEC2"
		},
		{
			"bufferView":43,
			"componentType":5126,
			"count":66,
			"max":[
				0.023992953822016716,
				1,
				0.023992950096726418
			],
			"min":[
				-0.023993106558918953,
				0,
				-0.023993030190467834
			],
			"type":"VEC3"
		},
		{
			"bufferView":44,
			"componentType":5126,
			"count":66,
			"type":"VEC3"
		},
		{
			"bufferView":45,
			"componentType":5126,
			"count":66,
			"type":"VEC2"
		},
		{
			"bufferView":46,
			"componentType":5126,
			"count":66,
			"max":[
				0.023992953822016716,
				1,
				0.023992950096726418
			],
			"min":[
				-0.023993106558918953,
				0,
				-0.023993030190467834
			],
			"type":"VEC3"
		},
		{
			"bufferView":47,
			"componentType":5126,
			"count":66,
			"type":"VEC3"
		},
		{
			"bufferView":48,
			"componentType":5126,
			"count":66,
			"type":"VEC2"
		},
		{
			"bufferView":49,
			"componentType":5126,
			"count":66,
			"max":[
				0.023992953822016716,
				1,
				0.023992950096726418
			],
			"min":[
				-0.023993106558918953,
				0,
				-0.023993030190467834
			],
			"type":"VEC3"
		},
		{
			"bufferView":50,
			"componentType":5126,
			"count":66,
			"type":"VEC3"
		},
		{
			"bufferView":51,
			"componentType":5126,
			"count":66,
			"type":"VEC2"
		},
		{
			"bufferView":52,
			"componentType":5126,
			"count":66,
			"max":[
				0.035642147064208984,
				1,
				0.03564190864562988
			],
			"min":[
				-0.03564190864562988,
				0,
				-0.035642027854919434
			],
			"type":"VEC3"
		},
		{
			"bufferView":53,
			"componentType":5126,
			"count":66,
			"type":"VEC3"
		},
		{
			"bufferView":54,
			"componentType":5126,
			"count":66,
			"type":"VEC2"
		},
		{
			"bufferView":55,
			"componentType":5126,
			"count":66,
			"max":[
				0.035642147064208984,
				1,
				0.03564190864562988
			],
			"min":[
				-0.03564190864562988,
				0,
				-0.035642027854919434
			],
			"type":"VEC3"
		},
		{
			"bufferView":56,
			"componentType":5126,
			"count":66,
			"type":"VEC3"
		},
		{
			"bufferView":57,
			"componentType":5126,
			"count":66,
			"type":"VEC2"
		},
		{
			"bufferView":58,
			"componentType":5126,
			"count":66,
			"max":[
				0.035642147064208984,
				1,
				0.03564190864562988
			],
			"min":[
				-0.03564190864562988,
				0,
				-0.035642027854919434
			],
			"type":"VEC3"
		},
		{
			"bufferView":59,
			"componentType":5126,
			"count":66,
			"type":"VEC3"
		},
		{
			"bufferView":60,
			"componentType":5126,
			"count":66,
			"type":"VEC2"
		},
		{
			"bufferView":61,
			"componentType":5126,
			"count":66,
			"max":[
				0.035642147064208984,
				1,
				0.03564190864562988
			],
			"min":[
				-0.03564190864562988,
				0,
				-0.035642027854919434
			],
			"type":"VEC3"
		},
		{
			"bufferView":62,
			"componentType":5126,
			"count":66,
			"type":"VEC3"
		},
		{
			"bufferView":63,
			"componentType":5126,
			"count":66,
			"type":"VEC2"
		},
		{
			"bufferView":64,
			"componentType":5126,
			"count":66,
			"max":[
				0.023992953822016716,
				1,
				0.023992950096726418
			],
			"min":[
				-0.023993106558918953,
				0,
				-0.023993030190467834
			],
			"type":"VEC3"
		},
		{
			"bufferView":65,
			"componentType":5126,
			"count":66,
			"type":"VEC3"
		},
		{
			"bufferView":66,
			"componentType":5126,
			"count":66,
			"type":"VEC2"
		},
		{
			"bufferView":67,
			"componentType":5126,
			"count":66,
			"max":[
				0.035642147064208984,
				1,
				0.03564190864562988
			],
			"min":[
				-0.03564190864562988,
				0,
				-0.035642027854919434
			],
			"type":"VEC3"
		},
		{
			"bufferView":68,
			"componentType":5126,
			"count":66,
			"type":"VEC3"
		},
		{
			"bufferView":69,
			"componentType":5126,
			"count":66,
			"type":"VEC2"
		},
		{
			"bufferView":70,
			"componentType":5126,
			"count":66,
			"max":[
				0.035642147064208984,
				1,
				0.03564190864562988
			],
			"min":[
				-0.03564190864562988,
				0,
				-0.035642027854919434
			],
			"type":"VEC3"
		},
		{
			"bufferView":71,
			"componentType":5126,
			"count":66,
			"type":"VEC3"
		},
		{
			"bufferView":72,
			"componentType":5126,
			"count":66,
			"type":"VEC2"
		},
		{
			"bufferView":73,
			"componentType":5126,
			"count":66,
			"max":[
				0.035642147064208984,
				1,
				0.03564190864562988
			],
			"min":[
				-0.03564190864562988,
				0,
				-0.035642027854919434
			],
			"type":"VEC3"
		},
		{
			"bufferView":74,
			"componentType":5126,
			"count":66,
			"type":"VEC3"
		},
		{
			"bufferView":75,
			"componentType":5126,
			"count":66,
			"type":"VEC2"
		},
		{
			"bufferView":76,
			"componentType":5126,
			"count":66,
			"max":[
				0.035642147064208984,
				1,
				0.03564190864562988
			],
			"min":[
				-0.03564190864562988,
				0,
				-0.035642027854919434
			],
			"type":"VEC3"
		},
		{
			"bufferView":77,
			"componentType":5126,
			"count":66,
			"type":"VEC3"
		},
		{
			"bufferView":78,
			"componentType":5126,
			"count":66,
			"type":"VEC2"
		},
		{
			"bufferView":79,
			"componentType":5126,
			"count":66,
			"max":[
				0.023992953822016716,
				1,
				0.023992950096726418
			],
			"min":[
				-0.023993106558918953,
				0,
				-0.023993030190467834
			],
			"type":"VEC3"
		},
		{
			"bufferView":80,
			"componentType":5126,
			"count":66,
			"type":"VEC3"
		},
		{
			"bufferView":81,
			"componentType":5126,
			"count":66,
			"type":"VEC2"
		}
	],
	"bufferViews":[
		{
			"buffer":0,
			"byteLength":2796,
			"byteOffset":0,
			"target":34962
		},
		{
			"buffer":0,
			"byteLength":2796,
			"byteOffset":2796,
			"target":34962
		},
		{
			"buffer":0,
			"byteLength":1864,
			"byteOffset":5592,
			"target":34962
		},
		{
			"buffer":0,
			"byteLength":1068,
			"byteOffset":7456,
			"target":34963
		},
		{
			"buffer":0,
			"byteLength":1212,
			"byteOffset":8524,
			"target":34962
		},
		{
			"buffer":0,
			"byteLength":1212,
			"byteOffset":9736,
			"target":34962
		},
		{
			"buffer":0,
			"byteLength":808,
			"byteOffset":10948,
			"target":34962
		},
		{
			"buffer":0,
			"byteLength":414,
			"byteOffset":11756,
			"target":34963
		},
		{
			"buffer":0,
			"byteLength":192,
			"byteOffset":12172,
			"target":34962
		},
		{
			"buffer":0,
			"byteLength":192,
			"byteOffset":12364,
			"target":34962
		},
		{
			"buffer":0,
			"byteLength":128,
			"byteOffset":12556,
			"target":34962
		},
		{
			"buffer":0,
			"byteLength":72,
			"byteOffset":12684,
			"target":34963
		},
		{
			"buffer":0,
			"byteLength":9216,
			"byteOffset":12756,
			"target":34962
		},
		{
			"buffer":0,
			"byteLength":9216,
			"byteOffset":21972,
			"target":34962
		},
		{
			"buffer":0,
			"byteLength":2856,
			"byteOffset":31188,
			"target":34963
		},
		{
			"buffer":0,
			"byteLength":792,
			"byteOffset":34044,
			"target":34962
		},
		{
			"buffer":0,
			"byteLength":792,
			"byteOffset":34836,
			"target":34962
		},
		{
			"buffer":0,
			"byteLength":528,
			"byteOffset":35628,
			"target":34962
		},
		{
			"buffer":0,
			"byteLength":360,
			"byteOffset":36156,
			"target":34963
		},
		{
			"buffer":0,
			"byteLength":792,
			"byteOffset":36516,
			"target":34962
		},
		{
			"buffer":0,
			"byteLength":792,
			"byteOffset":37308,
			"target":34962
		},
		{
			"buffer":0,
			"byteLength":528,
			"byteOffset":38100,
			"target":34962
		},
		{
			"buffer":0,
			"byteLength":792,
			"byteOffset":38628,
			"target":34962
		},
		{
			"buffer":0,
			"byteLength":792,
			"byteOffset":39420,
			"target":34962
		},
		{
			"buffer":0,
			"byteLength":528,
			"byteOffset":40212,
			"target":34962
		},
		{
			"buffer":0,
			"byteLength":792,
			"byteOffset":40740,
			"target":34962
		},
		{
			"buffer":0,
			"byteLength":792,
			"byteOffset":41532,
			"target":34962
		},
		{
			"buffer":0,
			"byteLength":528,
			"byteOffset":42324,
			"target":34962
		},
		{
			"buffer":0,
			"byteLength":792,
			"byteOffset":42852,
			"target":34962
		},
		{
			"buffer":0,
			"byteLength":792,
			"byteOffset":43644,
			"target":34962
		},
		{
			"buffer":0,
			"byteLength":528,
			"byteOffset":44436,
			"target":34962
		},
		{
			"buffer":0,
			"byteLength":792,
			"byteOffset":44964,
			"target":34962
		},
		{
			"buffer":0,
			"byteLength":792,
			"byteOffset":45756,
			"target":34962
		},
		{
			"buffer":0,
			"byteLength":528,
			"byteOffset":46548,
			"target":34962
		},
		{
			"buffer":0,
			"byteLength":792,
			"byteOffset":47076,
			"target":34962
		},
		{
			"buffer":0,
			"byteLength":792,
			"byteOffset":47868,
			"target":34962
		},
		{
			"buffer":0,
			"byteLength":528,
			"byteOffset":48660,
			"target":34962
		},
		{
			"buffer":0,
			"byteLength":792,
			"byteOffset":49188,
			"target":34962
		},
		{
			"buffer":0,
			"byteLength":792,
			"byteOffset":49980,
			"target":34962
		},
		{
			"buffer":0,
			"byteLength":528,
			"byteOffset":50772,
			"target":34962
		},
		{
			"buffer":0,
			"byteLength":792,
			"byteOffset":51300,
			"target":34962
		},
		{
			"buffer":0,
			"byteLength":792,
			"byteOffset":52092,
			"target":34962
		},
		{
			"buffer":0,
			"byteLength":528,
			"byteOffset":52884,
			"target":34962
		},
		{
			"buffer":0,
			"byteLength":792,
			"byteOffset":53412,
			"target":34962
		},
		{
			"buffer":0,
			"byteLength":792,
			"byteOffset":54204,
			"target":34962
		},
		{
			"buffer":0,
			"byteLength":528,
			"byteOffset":54996,
			"target":34962
		},
		{
			"buffer":0,
			"byteLength":792,
			"byteOffset":55524,
			"target":34962
		},
		{
			"buffer":0,
			"byteLength":792,
			"byteOffset":56316,
			"target":34962
		},
		{
			"buffer":0,
			"byteLength":528,
			"byteOffset":57108,
			"target":34962
		},
		{
			"buffer":0,
			"byteLength":792,
			"byteOffset":57636,
			"target":34962
		},
		{
			"buffer":0,
			"byteLength":792,
			"byteOffset":58428,
			"target":34962
		},
		{
			"buffer":0,
			"byteLength":528,
			"byteOffset":59220,
			"target":34962
		},
		{
			"buffer":0,
			"byteLength":792,
			"byteOffset":59748,
			"target":34962
		},
		{
			"buffer":0,
			"byteLength":792,
			"byteOffset":60540,
			"target":34962
		},
		{
			"buffer":0,
			"byteLength":528,
			"byteOffset":61332,
			"target":34962
		},
		{
			"buffer":0,
			"byteLength":792,
			"byteOffset":61860,
			"target":34962
		},
		{
			"buffer":0,
			"byteLength":792,
			"byteOffset":62652,
			"target":34962
		},
		{
			"buffer":0,
			"byteLength":528,
			"byteOffset":63444,
			"target":34962
		},
		{
			"buffer":0,
			"byteLength":792,
			"byteOffset":63972,
			"target":34962
		},
		{
			"buffer":0,
			"byteLength":792,
			"byteOffset":64764,
			"target":34962
		},
		{
			"buffer":0,
			"byteLength":528,
			"byteOffset":65556,
			"target":34962
		},
		{
			"buffer":0,
			"byteLength":792,
			"byteOffset":66084,
			"target":34962
		},
		{
			"buffer":0,
			"byteLength":792,
			"byteOffset":66876,
			"target":34962
		},
		{
			"buffer":0,
			"byteLength":528,
			"byteOffset":67668,
			"target":34962
		},
		{
			"buffer":0,
			"byteLength":792,
			"byteOffset":68196,
			"target":34962
		},
		{
			"buffer":0,
			"byteLength":792,
			"byteOffset":68988,
			"target":34962
		},
		{
			"buffer":0,
			"byteLength":528,
			"byteOffset":69780,
			"target":34962
		},
		{
			"buffer":0,
			"byteLength":792,
			"byteOffset":70308,
			"target":34962
		},
		{
			"buffer":0,
			"byteLength":792,
			"byteOffset":71100,
			"target":34962
		},
		{
			"buffer":0,
			"byteLength":528,
			"byteOffset":71892,
			"target":34962
		},
		{
			"buffer":0,
			"byteLength":792,
			"byteOffset":72420,
			"target":34962
		},
		{
			"buffer":0,
			"byteLength":792,
			"byteOffset":73212,
			"target":34962
		},
		{
			"buffer":0,
			"byteLength":528,
			"byteOffset":74004,
			"target":34962
		},
		{
			"buffer":0,
			"byteLength":792,
			"byteOffset":74532,
			"target":34962
		},
		{
			"buffer":0,
			"byteLength":792,
			"byteOffset":75324,
			"target":34962
		},
		{
			"buffer":0,
			"byteLength":528,
			"byteOffset":76116,
			"target":34962
		},
		{
			"buffer":0,
			"byteLength":792,
			"byteOffset":76644,
			"target":34962
		},
		{
			"buffer":0,
			"byteLength":792,
			"byteOffset":77436,
			"target":34962
		},
		{
			"buffer":0,
			"byteLength":528,
			"byteOffset":78228,
			"target":34962
		},
		{
			"buffer":0,
			"byteLength":792,
			"byteOffset":78756,
			"target":34962
		},
		{
			"buffer":0,
			"byteLength":792,
			"byteOffset":79548,
			"target":34962
		},
		{
			"buffer":0,
			"byteLength":528,
			"byteOffset":80340,
			"target":34962
		}
	],
	"samplers":[
		{
			"magFilter":9729,
			"minFilter":9987
		}
	],
	"buffers":[
		{
			"byteLength":80868,
			"uri":"irglm_lindsay_ramp.bin"
		}
	]
}
