{
	"asset":{
		"generator":"Khronos glTF Blender I/O v5.0.21",
		"version":"2.0"
	},
	"extensionsUsed":[
		"KHR_materials_specular",
		"KHR_materials_ior"
	],
	"scene":0,
	"scenes":[
		{
			"name":"Scene",
			"nodes":[
				0,
				1
			]
		}
	],
	"nodes":[
		{
			"mesh":0,
			"name":"Ground"
		},
		{
			"mesh":1,
			"name":"Walls"
		}
	],
	"materials":[
		{
			"doubleSided":true,
			"emissiveFactor":[
				0.10000000149011612,
				0.10000000149011612,
				0.10000000149011612
			],
			"extensions":{
				"KHR_materials_specular":{
					"specularFactor":0.4000000059604645
				},
				"KHR_materials_ior":{
					"ior":1.4500000476837158
				}
			},
			"name":"IRGLMStandardTile",
			"pbrMetallicRoughness":{
				"baseColorTexture":{
					"index":0
				},
				"metallicFactor":0,
				"roughnessFactor":0.30000001192092896
			}
		},
		{
			"doubleSided":true,
			"extensions":{
				"KHR_materials_specular":{
					"specularFactor":0.4000000059604645
				},
				"KHR_materials_ior":{
					"ior":1.4500000476837158
				}
			},
			"name":"IRGLMRedTile",
			"pbrMetallicRoughness":{
				"baseColorTexture":{
					"index":1
				},
				"metallicFactor":0,
				"roughnessFactor":0.30000001192092896
			}
		},
		{
			"doubleSided":true,
			"extensions":{
				"KHR_materials_specular":{
					"specularFactor":0.4000000059604645
				},
				"KHR_materials_ior":{
					"ior":1.4500000476837158
				}
			},
			"name":"IRGLMBlueTile",
			"pbrMetallicRoughness":{
				"baseColorTexture":{
					"index":2
				},
				"metallicFactor":0,
				"roughnessFactor":0.30000001192092896
			}
		},
		{
			"extensions":{
				"KHR_materials_specular":{
					"specularFactor":0.2679738402366638
				},
				"KHR_materials_ior":{
					"ior":1.4500000476837158
				}
			},
			"name":"IRGLMWalls",
			"pbrMetallicRoughness":{
				"baseColorFactor":[
					0.7156931161880493,
					0.5906184315681458,
					0.3813261389732361,
					1
				],
				"metallicFactor":0
			}
		},
		{
			"doubleSided":true,
			"name":"IRGLMDoors",
			"pbrMetallicRoughness":{
				"baseColorFactor":[
					0.14995983242988586,
					0.042311351746320724,
					0.03560132905840874,
					1
				],
				"metallicFactor":0,
				"roughnessFactor":0.5
			}
		},
		{
			"doubleSided":true,
			"extensions":{
				"KHR_materials_specular":{
					"specularColorFactor":[
						1.5490195751190186,
						1.5490195751190186,
						1.5490195751190186
					]
				},
				"KHR_materials_ior":{
					"ior":1.4500000476837158
				}
			},
			"name":"IRGLMWallBorder",
			"pbrMetallicRoughness":{
				"baseColorFactor":[
					0.012983015738427639,
					0.013702070340514183,
					0.012983031570911407,
					1
				],
				"metallicFactor":0,
				"roughnessFactor":0.23856207728385925
			}
		},
		{
			"emissiveFactor":[
				0.07626513952411917,
				0.07226129281910199,
				0.06279775593873493
			],
			"name":"IRGLMCeiling",
			"pbrMetallicRoughness":{
				"baseColorFactor":[
					0.3800496757030487,
					0.3597111403942108,
					0.3160024583339691,
					1
				],
				"metallicFactor":0,
				"roughnessFactor":0.5
			}
		}
	],
	"meshes":[
		{
			"name":"Vert.001",
			"primitives":[
				{
					"attributes":{
						"POSITION":0,
						"NORMAL":1,
						"TEXCOORD_0":2
					},
					"indices":3,
					"material":0
				},
				{
					"attributes":{
						"POSITION":4,
						"NORMAL":5,
						"TEXCOORD_0":6
					},
					"indices":7,
					"material":1
				},
				{
					"attributes":{
						"POSITION":8,
						"NORMAL":9,
						"TEXCOORD_0":10
					},
					"indices":11,
					"material":2
				}
			]
		},
		{
			"name":"Vert",
			"primitives":[
				{
					"attributes":{
						"POSITION":12,
						"NORMAL":13,
						"TEXCOORD_0":14
					},
					"indices":15,
					"material":3
				},
				{
					"attributes":{
						"POSITION":16,
						"NORMAL":17,
						"TEXCOORD_0":18
					},
					"indices":19,
					"material":4
				},
				{
					"attributes":{
						"POSITION":20,
						"NORMAL":21,
						"TEXCOORD_0":22
					},
					"indices":23,
					"material":5
				},
				{
					"attributes":{
						"POSITION":24,
						"NORMAL":25,
						"TEXCOORD_0":26
					},
					"indices":27,
					"material":6
				}
			]
		}
	],
	"textures":[
		{
			"sampler":0,
			"source":0
		},
		{
			"sampler":0,
			"source":1
		},
		{
			"sampler":0,
			"source":2
		}
	],
	"images":[
		{
			"mimeType":"image/jpeg",
			"name":"irglm_standard_tile",
			"uri":"textures/irglm_standard_tile.jpg"
		},
		{
			"mimeType":"image/jpeg",
			"name":"irglm_red_tile",
			"uri":"textures/irglm_red_tile.jpg"
		},
		{
			"mimeType":"image/jpeg",
			"name":"irglm_blue_tile",
			"uri":"textures/irglm_blue_tile.jpg"
		}
	],
	"accessors":[
		{
			"bufferView":0,
			"componentType":5126,
			"count":3449,
			"max":[
				34.8599739074707,
				-9.536742027194123e-07,
				0.5984786748886108
			],
			"min":[
				-4.459226131439209,
				-9.536742027194123e-07,
				-32.01511764526367
			],
			"type":"VEC3"
		},
		{
			"bufferView":1,
			"componentType":5126,
			"count":3449,
			"type":"VEC3"
		},
		{
			"bufferView":2,
			"componentType":5126,
			"count":3449,
			"type":"VEC2"
		},
		{
			"bufferView":3,
			"componentType":5123,
			"count":17754,
			"type":"SCALAR"
		},
		{
			"bufferView":4,
			"componentType":5126,
			"count":473,
			"max":[
				34.25037384033203,
				-9.536742027194123e-07,
				-2.4495205879211426
			],
			"min":[
				-2.0208256244659424,
				-9.536742027194123e-07,
				-5.802321434020996
			],
			"type":"VEC3"
		},
		{
			"bufferView":5,
			"componentType":5126,
			"count":473,
			"type":"VEC3"
		},
		{
			"bufferView":6,
			"componentType":5126,
			"count":473,
			"type":"VEC2"
		},
		{
			"bufferView":7,
			"componentType":5123,
			"count":1944,
			"type":"SCALAR"
		},
		{
			"bufferView":8,
			"componentType":5126,
			"count":313,
			"max":[
				32.11677169799805,
				-9.536742027194123e-07,
				-1.5351203680038452
			],
			"min":[
				-0.496826708316803,
				-9.536742027194123e-07,
				-9.76471996307373
			],
			"type":"VEC3"
		},
		{
			"bufferView":9,
			"componentType":5126,
			"count":313,
			"type":"VEC3"
		},
		{
			"bufferView":10,
			"componentType":5126,
			"count":313,
			"type":"VEC2"
		},
		{
			"bufferView":11,
			"componentType":5123,
			"count":1104,
			"type":"SCALAR"
		},
		{
			"bufferView":12,
			"componentType":5126,
			"count":1162,
			"max":[
				34.29000473022461,
				2.7431998252868652,
				0
			],
			"min":[
				-3.962400436401367,
				0,
				-31.3944034576416
			],
			"type":"VEC3"
		},
		{
			"bufferView":13,
			"componentType":5126,
			"count":1162,
			"type":"VEC3"
		},
		{
			"bufferView":14,
			"componentType":5126,
			"count":1162,
			"type":"VEC2"
		},
		{
			"bufferView":15,
			"componentType":5123,
			"count":2298,
			"type":"SCALAR"
		},
		{
			"bufferView":16,
			"componentType":5126,
			"count":178,
			"max":[
				33.98520278930664,
				2.1335997581481934,
				-0.15240001678466797
			],
			"min":[
				-1.6764001846313477,
				0,
				-31.3944034576416
			],
			"type":"VEC3"
		},
		{
			"bufferView":17,
			"componentType":5126,
			"count":178,
			"type":"VEC3"
		},
		{
			"bufferView":18,
			"componentType":5126,
			"count":178,
			"type":"VEC2"
		},
		{
			"bufferView":19,
			"componentType":5123,
			"count":354,
			"type":"SCALAR"
		},
		{
			"bufferView":20,
			"componentType":5126,
			"count":408,
			"max":[
				34.29000473022461,
				0.18010158836841583,
				0
			],
			"min":[
				-3.962400436401367,
				0,
				-31.3944034576416
			],
			"type":"VEC3"
		},
		{
			"bufferView":21,
			"componentType":5126,
			"count":408,
			"type":"VEC3"
		},
		{
			"bufferView":22,
			"componentType":5126,
			"count":408,
			"type":"VEC2"
		},
		{
			"bufferView":23,
			"componentType":5123,
			"count":624,
			"type":"SCALAR"
		},
		{
			"bufferView":24,
			"componentType":5126,
			"count":6,
			"max":[
				22.860002517700195,
				2.7431998252868652,
				-2.4384002685546875
			],
			"min":[
				18.592802047729492,
				2.7431998252868652,
				-3.3528003692626953
			],
			"type":"VEC3"
		},
		{
			"bufferView":25,
			"componentType":5126,
			"count":6,
			"type":"VEC3"
		},
		{
			"bufferView":26,
			"componentType":5126,
			"count":6,
			"type":"VEC2"
		},
		{
			"bufferView":27,
			"componentType":5123,
			"count":12,
			"type":"SCALAR"
		}
	],
	"bufferViews":[
		{
			"buffer":0,
			"byteLength":41388,
			"byteOffset":0,
			"target":34962
		},
		{
			"buffer":0,
			"byteLength":41388,
			"byteOffset":41388,
			"target":34962
		},
		{
			"buffer":0,
			"byteLength":27592,
			"byteOffset":82776,
			"target":34962
		},
		{
			"buffer":0,
			"byteLength":35508,
			"byteOffset":110368,
			"target":34963
		},
		{
			"buffer":0,
			"byteLength":5676,
			"byteOffset":145876,
			"target":34962
		},
		{
			"buffer":0,
			"byteLength":5676,
			"byteOffset":151552,
			"target":34962
		},
		{
			"buffer":0,
			"byteLength":3784,
			"byteOffset":157228,
			"target":34962
		},
		{
			"buffer":0,
			"byteLength":3888,
			"byteOffset":161012,
			"target":34963
		},
		{
			"buffer":0,
			"byteLength":3756,
			"byteOffset":164900,
			"target":34962
		},
		{
			"buffer":0,
			"byteLength":3756,
			"byteOffset":168656,
			"target":34962
		},
		{
			"buffer":0,
			"byteLength":2504,
			"byteOffset":172412,
			"target":34962
		},
		{
			"buffer":0,
			"byteLength":2208,
			"byteOffset":174916,
			"target":34963
		},
		{
			"buffer":0,
			"byteLength":13944,
			"byteOffset":177124,
			"target":34962
		},
		{
			"buffer":0,
			"byteLength":13944,
			"byteOffset":191068,
			"target":34962
		},
		{
			"buffer":0,
			"byteLength":9296,
			"byteOffset":205012,
			"target":34962
		},
		{
			"buffer":0,
			"byteLength":4596,
			"byteOffset":214308,
			"target":34963
		},
		{
			"buffer":0,
			"byteLength":2136,
			"byteOffset":218904,
			"target":34962
		},
		{
			"buffer":0,
			"byteLength":2136,
			"byteOffset":221040,
			"target":34962
		},
		{
			"buffer":0,
			"byteLength":1424,
			"byteOffset":223176,
			"target":34962
		},
		{
			"buffer":0,
			"byteLength":708,
			"byteOffset":224600,
			"target":34963
		},
		{
			"buffer":0,
			"byteLength":4896,
			"byteOffset":225308,
			"target":34962
		},
		{
			"buffer":0,
			"byteLength":4896,
			"byteOffset":230204,
			"target":34962
		},
		{
			"buffer":0,
			"byteLength":3264,
			"byteOffset":235100,
			"target":34962
		},
		{
			"buffer":0,
			"byteLength":1248,
			"byteOffset":238364,
			"target":34963
		},
		{
			"buffer":0,
			"byteLength":72,
			"byteOffset":239612,
			"target":34962
		},
		{
			"buffer":0,
			"byteLength":72,
			"byteOffset":239684,
			"target":34962
		},
		{
			"buffer":0,
			"byteLength":48,
			"byteOffset":239756,
			"target":34962
		},
		{
			"buffer":0,
			"byteLength":24,
			"byteOffset":239804,
			"target":34963
		}
	],
	"samplers":[
		{
			"magFilter":9729,
			"minFilter":9987
		}
	],
	"buffers":[
		{
			"byteLength":239828,
			"uri":"irglm_4th_floor.bin"
		}
	]
}
