{
	"asset":{
		"generator":"Khronos glTF Blender I/O v5.0.21",
		"version":"2.0"
	},
	"scene":0,
	"scenes":[
		{
			"name":"Scene",
			"nodes":[
				0,
				1,
				2,
				3,
				4,
				5
			]
		}
	],
	"nodes":[
		{
			"mesh":0,
			"name":"Sidewalk"
		},
		{
			"mesh":1,
			"name":"Road",
			"translation":[
				0.428798109292984,
				0,
				0
			]
		},
		{
			"mesh":2,
			"name":"GrassForbidden",
			"translation":[
				-0.3783748745918274,
				0,
				0
			]
		},
		{
			"mesh":3,
			"name":"Building",
			"translation":[
				19.386310577392578,
				7.986515998840332,
				-8.312670707702637
			]
		},
		{
			"mesh":4,
			"name":"GrassAllowed",
			"translation":[
				-0.3783748745918274,
				0,
				0
			]
		},
		{
			"name":"Lattice.001",
			"scale":[
				41.97688674926758,
				0.24916890263557434,
				36.96919250488281
			],
			"translation":[
				10.089296340942383,
				0.12458445131778717,
				-8.149600982666016
			]
		}
	],
	"materials":[
		{
			"doubleSided":true,
			"name":"Sidewalk",
			"pbrMetallicRoughness":{
				"baseColorFactor":[
					0.2982522249221802,
					0.2982522249221802,
					0.2982522249221802,
					1
				],
				"metallicFactor":0,
				"roughnessFactor":0.5
			}
		},
		{
			"doubleSided":true,
			"name":"Road",
			"pbrMetallicRoughness":{
				"baseColorFactor":[
					0.04961603134870529,
					0.04961603134870529,
					0.04961603134870529,
					1
				],
				"metallicFactor":0,
				"roughnessFactor":0.5
			}
		},
		{
			"doubleSided":true,
			"name":"Grass",
			"pbrMetallicRoughness":{
				"baseColorFactor":[
					0.016755148768424988,
					0.19687962532043457,
					0.010829653590917587,
					1
				],
				"metallicFactor":0,
				"roughnessFactor":0.5
			}
		},
		{
			"doubleSided":true,
			"name":"Building",
			"pbrMetallicRoughness":{
				"baseColorFactor":[
					0.1701265275478363,
					0.006936508230865002,
					0.004519272595643997,
					1
				],
				"metallicFactor":0,
				"roughnessFactor":0.5
			}
		}
	],
	"meshes":[
		{
			"name":"Vert",
			"primitives":[
				{
					"attributes":{
						"POSITION":0,
						"NORMAL":1
					},
					"indices":2,
					"material":0
				}
			]
		},
		{
			"name":"Vert.001",
			"primitives":[
				{
					"attributes":{
						"POSITION":3,
						"NORMAL":4
					},
					"indices":5,
					"material":1
				}
			]
		},
		{
			"name":"Vert.002",
			"primitives":[
				{
					"attributes":{
						"POSITION":6,
						"NORMAL":7
					},
					"indices":8,
					"material":2
				}
			]
		},
		{
			"name":"Cube.001",
			"primitives":[
				{
					"attributes":{
						"POSITION":9,
						"NORMAL":10,
						"TEXCOORD_0":11
					},
					"indices":12,
					"material":3
				}
			]
		},
		{
			"name":"Vert.003",
			"primitives":[
				{
					"attributes":{
						"POSITION":13,
						"NORMAL":14
					},
					"indices":15,
					"material":2
				}
			]
		}
	],
	"accessors":[
		{
			"bufferView":0,
			"componentType":5126,
			"count":108,
			"max":[
				1.6410781145095825,
				1.178931713104248,
				9.90976619720459
			],
			"min":[
				-0.25776100158691406,
				0.17196953296661377,
				-25.538341522216797
			],
			"type":"VEC3"
		},
		{
			"bufferView":1,
			"componentType":5126,
			"count":108,
			"type":"VEC3"
		},
		{
			"bufferView":2,
			"componentType":5123,
			"count":306,
			"type":"SCALAR"
		},
		{
			"bufferView":3,
			"componentType":5126,
			"count":108,
			"max":[
				-0.25776100158691406,
				0.8511992692947388,
				10.334996223449707
			],
			"min":[
				-11.3279447555542,
				0.01983964815735817,
				-26.634197235107422
			],
			"type":"VEC3"
		},
		{
			"bufferView":4,
			"componentType":5126,
			"count":108,
			"type":"VEC3"
		},
		{
			"bufferView":5,
			"componentType":5123,
			"count":510,
			"type":"SCALAR"
		},
		{
			"bufferView":6,
			"componentType":5126,
			"count":180,
			"max":[
				31.456113815307617,
				1.094062328338623,
				10.334996223449707
			],
			"min":[
				10.637533187866211,
				0.17203301191329956,
				-26.634197235107422
			],
			"type":"VEC3"
		},
		{
			"bufferView":7,
			"componentType":5126,
			"count":180,
			"type":"VEC3"
		},
		{
			"bufferView":8,
			"componentType":5123,
			"count":918,
			"type":"SCALAR"
		},
		{
			"bufferView":9,
			"componentType":5126,
			"count":24,
			"max":[
				6.3878984451293945,
				8.963157653808594,
				12.791773796081543
			],
			"min":[
				-6.3878984451293945,
				-8.963157653808594,
				-12.791773796081543
			],
			"type":"VEC3"
		},
		{
			"bufferView":10,
			"componentType":5126,
			"count":24,
			"type":"VEC3"
		},
		{
			"bufferView":11,
			"componentType":5126,
			"count":24,
			"type":"VEC2"
		},
		{
			"bufferView":12,
			"componentType":5123,
			"count":36,
			"type":"SCALAR"
		},
		{
			"bufferView":13,
			"componentType":5126,
			"count":90,
			"max":[
				10.637533187866211,
				1.2072464227676392,
				10.334996223449707
			],
			"min":[
				1.6410781145095825,
				0.35289546847343445,
				-26.634197235107422
			],
			"type":"VEC3"
		},
		{
			"bufferView":14,
			"componentType":5126,
			"count":90,
			"type":"VEC3"
		},
		{
			"bufferView":15,
			"componentType":5123,
			"count":408,
			"type":"SCALAR"
		}
	],
	"bufferViews":[
		{
			"buffer":0,
			"byteLength":1296,
			"byteOffset":0,
			"target":34962
		},
		{
			"buffer":0,
			"byteLength":1296,
			"byteOffset":1296,
			"target":34962
		},
		{
			"buffer":0,
			"byteLength":612,
			"byteOffset":2592,
			"target":34963
		},
		{
			"buffer":0,
			"byteLength":1296,
			"byteOffset":3204,
			"target":34962
		},
		{
			"buffer":0,
			"byteLength":1296,
			"byteOffset":4500,
			"target":34962
		},
		{
			"buffer":0,
			"byteLength":1020,
			"byteOffset":5796,
			"target":34963
		},
		{
			"buffer":0,
			"byteLength":2160,
			"byteOffset":6816,
			"target":34962
		},
		{
			"buffer":0,
			"byteLength":2160,
			"byteOffset":8976,
			"target":34962
		},
		{
			"buffer":0,
			"byteLength":1836,
			"byteOffset":11136,
			"target":34963
		},
		{
			"buffer":0,
			"byteLength":288,
			"byteOffset":12972,
			"target":34962
		},
		{
			"buffer":0,
			"byteLength":288,
			"byteOffset":13260,
			"target":34962
		},
		{
			"buffer":0,
			"byteLength":192,
			"byteOffset":13548,
			"target":34962
		},
		{
			"buffer":0,
			"byteLength":72,
			"byteOffset":13740,
			"target":34963
		},
		{
			"buffer":0,
			"byteLength":1080,
			"byteOffset":13812,
			"target":34962
		},
		{
			"buffer":0,
			"byteLength":1080,
			"byteOffset":14892,
			"target":34962
		},
		{
			"buffer":0,
			"byteLength":816,
			"byteOffset":15972,
			"target":34963
		}
	],
	"buffers":[
		{
			"byteLength":16788,
			"uri":"demo.bin"
		}
	]
}
